<svg xmlns="http://www.w3.org/2000/svg" width="340" height="250" viewBox="0 0 340 250" font-family="&#39;JetBrains Mono&#39;,monospace">
  <path d="M 12 54 H 150" stroke="rgba(10,10,10,.15)" stroke-width="1" fill="none"></path>
  <path d="M 150 54 V 134" stroke="rgba(10,10,10,.15)" stroke-width="1" fill="none"></path>
  <path d="M 150 134 H 328" stroke="rgba(10,10,10,.15)" stroke-width="1" fill="none"></path>
  <path d="M 150 134 V 214" stroke="rgba(10,10,10,.15)" stroke-width="1" fill="none"></path>
  <path d="M 150 214 H 260" stroke="rgba(10,10,10,.15)" stroke-width="1" fill="none"></path>

  <g transform="translate(12,32)" stroke="rgba(10,10,10,.55)" fill="none" stroke-width="1.3">
    <rect x="-7" y="-6" width="14" height="12" rx="1.5"></rect>
    <line x1="-7" y1="-2.2" x2="7" y2="-2.2"></line>
  </g>
  <circle cx="12" cy="54" r="4.5" fill="#0a0a0a"></circle>
  <text x="12" y="70" text-anchor="middle" font-size="11" font-weight="500" fill="rgba(10,10,10,.4)">ui</text>

  <g transform="translate(150,112)" stroke="#007F45" fill="none" stroke-width="1.3" stroke-linejoin="round" stroke-linecap="round">
    <path d="M -7 -3 L 0 -6 L 7 -3 L 0 0 Z"></path>
    <path d="M -7 1 L 0 4 L 7 1"></path>
  </g>
  <circle cx="150" cy="134" r="4.5" fill="#00C16A"></circle>
  <text x="150" y="150" text-anchor="middle" font-size="11" font-weight="500" fill="#007F45">store</text>

  <g transform="translate(328,112)" stroke="rgba(10,10,10,.55)" fill="none" stroke-width="1.3" stroke-linecap="round" stroke-linejoin="round">
    <path d="M -2 -5 L -6 0 L -2 5"></path>
    <path d="M 2 -5 L 6 0 L 2 5"></path>
  </g>
  <circle cx="328" cy="134" r="4.5" fill="#0a0a0a"></circle>
  <text x="328" y="150" text-anchor="middle" font-size="11" font-weight="500" fill="rgba(10,10,10,.4)">api</text>

  <g transform="translate(150,192)" stroke="rgba(10,10,10,.55)" fill="none" stroke-width="1.3">
    <ellipse cx="0" cy="-4" rx="7" ry="2.2"></ellipse>
    <path d="M -7 -4 V 3"></path>
    <path d="M 7 -4 V 3"></path>
    <path d="M -7 3 Q 0 5.5 7 3"></path>
  </g>
  <circle cx="150" cy="214" r="4.5" fill="#0a0a0a"></circle>
  <text x="150" y="230" text-anchor="middle" font-size="11" font-weight="500" fill="rgba(10,10,10,.4)">db</text>

  <g transform="translate(260,192)" stroke="#007F45">
    <circle cx="0" cy="0" r="2" fill="#007F45"></circle>
    <circle cx="-6" cy="-5" r="1.6" fill="none" stroke-width="1.2"></circle>
    <circle cx="6" cy="-5" r="1.6" fill="none" stroke-width="1.2"></circle>
    <circle cx="0" cy="6" r="1.6" fill="none" stroke-width="1.2"></circle>
    <line x1="0" y1="0" x2="-6" y2="-5" stroke-width="1"></line>
    <line x1="0" y1="0" x2="6" y2="-5" stroke-width="1"></line>
    <line x1="0" y1="0" x2="0" y2="6" stroke-width="1"></line>
  </g>
  <circle cx="260" cy="214" r="4.5" fill="#00C16A"></circle>
  <text x="260" y="230" text-anchor="middle" font-size="11" font-weight="500" fill="#007F45">edge</text>
</svg>