<?xml version="1.0" encoding="UTF-8"?>
<!DOCTYPE svg PUBLIC "-//W3C//DTD SVG 1.1//EN" "http://www.w3.org/Graphics/SVG/1.1/DTD/svg11.dtd">
<!-- Creator: CorelDRAW X7 -->
<svg xmlns="http://www.w3.org/2000/svg" xml:space="preserve" width="85px" height="88px" version="1.1" style="shape-rendering:geometricPrecision; text-rendering:geometricPrecision; image-rendering:optimizeQuality; fill-rule:evenodd; clip-rule:evenodd"
viewBox="0 0 8399121 8745893"
 xmlns:xlink="http://www.w3.org/1999/xlink">
 <defs>
  <style type="text/css">
   <![CDATA[
    .fil0 {fill:black}
   ]]>
  </style>
 </defs>
 <g id="Warstwa_x0020_1">
  <metadata id="CorelCorpID_0Corel-Layer"/>
  <g id="_1714200432896">
   <path class="fil0" d="M8399121 0l-8399121 0 2330728 2231600 -2202411 6514293 8169107 0 -2175206 -2194705 2276903 -6551188zm-4975186 763249l3912919 -4554 -1575068 4564547 -2997418 -2598922 659567 -1961071zm1489018 7210872l-3913152 44952 1614183 -4707109 2948612 2712878 -649643 1949279z"/>
   <path class="fil0" d="M8399121 0l-8273839 0 2240240 2128620 -2218640 6557609 8092514 0 -2117294 -2135041 2277019 -6551188zm-4825969 668674l3787871 0 -1599237 4662858 -2872136 -2625777 683502 -2037081zm1339685 7295756l-3787755 0 1599238 -4662857 2872019 2625776 -683502 2037081z"/>
  </g>
 </g>
</svg>
